<svg enable-background="new 0 0 100.25 100.25" viewBox="0 0 100.25 100.25" xmlns="http://www.w3.org/2000/svg"><path d="m94.46 6.338c-.586-.586-1.535-.586-2.121 0l-8.132 8.132-.384-.384c-.488-.488-1.249-.58-1.843-.22l-16.682 10.188c-.251.153-.437.37-.559.615-.12.066-.243.127-.344.229l-15.172 15.171-32.831-32.831c-.586-.586-1.535-.586-2.121 0l-9.192 9.192c-.586.586-.586 1.535 0 2.121l4.614 4.614c-1.577 1.752-2.439 3.997-2.417 6.389.022 2.552 1.036 4.958 2.854 6.776l12.627 12.626c.293.293.677.439 1.061.439s.768-.146 1.061-.439c.586-.586.586-1.535 0-2.121l-12.627-12.626c-1.258-1.259-1.96-2.921-1.976-4.682-.014-1.58.532-3.066 1.539-4.241l25.921 25.921-26.223 26.223c-.464.464-.545 1.151-.273 1.71-1.418 1.636-2.312 3.6-2.537 5.61-.267 2.391.43 4.55 1.961 6.081 1.317 1.317 3.099 2.017 5.092 2.017.324 0 .654-.019.989-.056 2.01-.224 3.973-1.12 5.609-2.537.207.101.425.167.65.167.384 0 .768-.146 1.061-.439l26.223-26.223 28.332 28.332c.293.293.677.439 1.061.439s.768-.146 1.061-.439l9.192-9.192c.586-.586.586-1.535 0-2.121l-28.156-28.156 15.172-15.171c.107-.107.189-.231.259-.362.247-.129.462-.323.61-.583l9.719-17.151c.333-.587.232-1.323-.244-1.8l-.963-.963 8.132-8.132c.583-.588.583-1.537-.003-2.123zm-79.128 4.082 15.26 15.26-7.071 7.071-15.26-15.26zm1.079 79.391c-1.471.163-2.753-.228-3.627-1.101-.873-.873-1.264-2.161-1.101-3.627.147-1.313.719-2.61 1.624-3.736l6.84 6.84c-1.126.905-2.423 1.477-3.736 1.624zm6.592-3.01-8.31-8.31 25.163-25.163 8.31 8.31zm56.676 2.109-54.037-54.037 7.071-7.071 54.037 54.037zm-20.024-38.409-8.31-8.31 14.112-14.111 8.309 8.31zm16.072-16.393-8.013-8.013 14.823-9.053 1.825 1.826z"/></svg>