<svg enable-background="new 0 0 32 32" viewBox="0 0 32 32" xmlns="http://www.w3.org/2000/svg"><g style="fill:none;stroke:#000;stroke-width:2;stroke-linecap:round;stroke-linejoin:round;stroke-miterlimit:10"><path d="m21.5 3c-1.9.1-3.7.8-5 2.1l-.9.9c1.5 0 2.9.7 3.8 1.9.6.7 1.5 1.1 2.5 1.1 1.9 0 3.4-1.6 3.1-3.5-.3-1.5-1.8-2.6-3.5-2.5z"/><circle cx="6" cy="24" r="5"/><circle cx="26" cy="24" r="5"/><path d="m26 14h-5l-3.2-3.2c-1-1-2.7-1.1-3.8-.1l-3.5 3c-.8.7-.7 1.9.2 2.5l6.3 3.8-2 6"/><path d="m18.5 11.5-6.3 5.5"/></g><circle cx="6" cy="24" r="1"/><circle cx="26" cy="24" r="1"/></svg>