<?xml version="1.0" encoding="utf-8"?>
<!-- Svg Vector Icons : http://www.onlinewebfonts.com/icon -->
<!DOCTYPE svg PUBLIC "-//W3C//DTD SVG 1.1//EN" "http://www.w3.org/Graphics/SVG/1.1/DTD/svg11.dtd">
<svg version="1.1" xmlns="http://www.w3.org/2000/svg" xmlns:xlink="http://www.w3.org/1999/xlink" x="0px" y="0px" viewBox="0 0 1000 1000" enable-background="new 0 0 1000 1000" xml:space="preserve">
<metadata> Svg Vector Icons : http://www.onlinewebfonts.com/icon </metadata>
<g><path d="M336.8,93.7H112.7C56.1,93.7,10,139.8,10,196.4v224.1c0,56.6,46.1,102.7,102.7,102.7h224.1c56.6,0,102.7-46.1,102.7-102.7V196.4C439.5,139.8,393.4,93.7,336.8,93.7z M383.5,420.5c0,25.7-20.9,46.7-46.7,46.7H112.7C87,467.1,66,446.2,66,420.5V196.4c0-25.7,20.9-46.7,46.7-46.7h224.1c25.7,0,46.7,20.9,46.7,46.7V420.5z"/><path d="M336.8,560.5H112.7C56.1,560.5,10,606.6,10,663.2v224.1C10,943.9,56.1,990,112.7,990h224.1c56.6,0,102.7-46.1,102.7-102.7V663.2C439.5,606.6,393.4,560.5,336.8,560.5z M383.5,887.3c0,25.8-20.9,46.7-46.7,46.7H112.7C87,934,66,913,66,887.3V663.2c0-25.7,20.9-46.7,46.7-46.7h224.1c25.7,0,46.7,20.9,46.7,46.7V887.3z"/><path d="M960,198.5L801.5,40c-19.3-19.3-45.1-30-72.6-30c-27.5,0-53.3,10.6-72.6,30L497.8,198.5c-19.3,19.3-30,45.1-30,72.6c0,27.5,10.6,53.3,30,72.6l158.4,158.4c19.3,19.3,45.1,30,72.6,30c27.5,0,53.3-10.6,72.6-30L960,343.7C1000,303.7,1000,238.5,960,198.5z M920.4,304.1L761.9,462.5c-17.5,17.5-48.5,17.5-66,0L537.4,304.1c-8.8-8.8-13.6-20.5-13.6-33c0-12.5,4.8-24.3,13.6-33L695.9,79.6c8.8-8.8,20.5-13.6,33-13.6c12.5,0,24.3,4.8,33,13.6l158.4,158.4C938.6,256.3,938.6,285.9,920.4,304.1z"/><path d="M803.6,560.5H579.5c-56.6,0-102.7,46.1-102.7,102.7v224.1c0,56.6,46.1,102.7,102.7,102.7h224.1c56.6,0,102.7-46.1,102.7-102.7V663.2C906.3,606.6,860.2,560.5,803.6,560.5z M850.3,887.3c0,25.8-20.9,46.7-46.7,46.7H579.5c-25.7,0-46.7-20.9-46.7-46.7V663.2c0-25.7,20.9-46.7,46.7-46.7h224.1c25.7,0,46.7,20.9,46.7,46.7V887.3z"/></g>
</svg>